<svg xmlns="http://www.w3.org/2000/svg" width="48" height="48"><g color="#000" transform="translate(0 -1004.362)"><circle style="isolation:auto;mix-blend-mode:normal;solid-color:#000;solid-opacity:1" cx="-20.532" cy="1028.437" r="24" fill="#386c9d" overflow="visible" transform="scale(-1 1) rotate(.193)"/><path fill="#273b7a" style="line-height:normal;text-indent:0;text-align:start;text-decoration-line:none;text-decoration-style:solid;text-decoration-color:#000;text-transform:none;block-progression:tb;white-space:normal;isolation:auto;mix-blend-mode:normal;solid-color:#000;solid-opacity:1" d="M15.63 1017.514a1.79 1.79 0 0 0-1.782 1.784v18.13c0 .367.112.708.304.993h.002c.064.094.137.183.217.263h.002l13.356 13.356a24 24 0 0 0 20.044-20.617L33.98 1017.63c-.016-.016-.035-.024-.052-.037-.02-.014-.036-.031-.057-.041a.339.339 0 0 0-.144-.04.361.361 0 0 0-.223.079l-6.688 5.13-2.07 1.59-6.275-6.275h-.002a1.767 1.767 0 0 0-1.258-.524h-1.58z" font-family="sans-serif" font-weight="400"/><path fill="#ffc91b" style="line-height:normal;text-indent:0;text-align:start;text-decoration-line:none;text-decoration-style:solid;text-decoration-color:#000;text-transform:none;block-progression:tb;white-space:normal;isolation:auto;mix-blend-mode:normal;solid-color:#000;solid-opacity:1" d="M17.21 1017.514h-1.58a1.79 1.79 0 0 0-1.782 1.784v18.13c0 .98.804 1.782 1.783 1.782h1.58c.98 0 1.783-.802 1.783-1.781v-18.131a1.79 1.79 0 0 0-1.783-1.784zm16.517 0a.361.361 0 0 0-.223.078l-6.688 5.131-6.687 5.131c-.169.13-.252.394-.203.645.03.15.103.278.205.355l6.683 5.133 6.686 5.137c.289.221.65-.057.65-.5v-10.266l.002-10.265c.001-.334-.201-.573-.425-.579z" font-family="sans-serif" font-weight="400" overflow="visible"/><path fill="#fde085" style="isolation:auto;mix-blend-mode:normal;solid-color:#000;solid-opacity:1" d="M33.727 1017.514c.223.01.426.245.425.579l-.002 10.238H19.935c.008-.192.064-.377.194-.477l6.687-5.13 6.688-5.131a.361.361 0 0 1 .223-.078zm-16.516 0c.98 0 1.783.804 1.783 1.784v9.033h-5.146v-9.033c0-.98.804-1.784 1.783-1.784h1.58z" overflow="visible"/><path fill="#5d93c6" style="isolation:auto;mix-blend-mode:normal;solid-color:#000;solid-opacity:1" d="M1.74 1029.324c1.3-12.495 14.38-23.088 23.527-23.289-13.255.045-23.571 10.034-23.527 23.289z" overflow="visible"/></g></svg>