<svg xmlns="http://www.w3.org/2000/svg" width="48" height="48"><g color="#000" transform="translate(0 -1004.362)"><circle style="isolation:auto;mix-blend-mode:normal;solid-color:#000;solid-opacity:1" cx="-20.532" cy="1028.437" r="24" fill="#386c9d" overflow="visible" transform="scale(-1 1) rotate(.193)"/><path fill="#5d93c6" style="isolation:auto;mix-blend-mode:normal;solid-color:#000;solid-opacity:1" d="M1.74 1029.324c1.3-12.495 14.38-23.088 23.527-23.289-13.255.045-23.571 10.034-23.527 23.289z" overflow="visible"/><path fill="#273b7a" style="line-height:normal;text-indent:0;text-align:start;text-decoration-line:none;text-decoration-style:solid;text-decoration-color:#000;text-transform:none;block-progression:tb;white-space:normal;isolation:auto;mix-blend-mode:normal;solid-color:#000;solid-opacity:1" d="M14.273 1017.514c-.223.01-.426.245-.425.579l.002 10.265v10.266c0 .105.021.197.056.28.012.028.032.046.047.071.023.037.04.08.069.108l13.052 13.052a24 24 0 0 0 20.606-20.047l-14.051-14.05h-.002a1.767 1.767 0 0 0-1.258-.524h-1.58a1.79 1.79 0 0 0-1.783 1.784v9.687l-1.092-1.091a.459.459 0 0 0-.043-.04l-6.687-5.13-6.688-5.131a.361.361 0 0 0-.223-.078z" font-family="sans-serif" font-weight="400"/><path fill="#ffc91b" d="M30.79 1017.514h1.58c.978 0 1.782.804 1.782 1.784v18.13c0 .98-.804 1.782-1.783 1.782h-1.58c-.98 0-1.783-.802-1.783-1.781v-18.131c0-.98.804-1.784 1.783-1.784zm-16.517 0c.075 0 .15.023.223.078l6.688 5.131 6.687 5.131c.169.13.252.394.203.645a.583.583 0 0 1-.205.355l-6.683 5.133-6.686 5.137c-.289.221-.65-.057-.65-.5v-10.266l-.002-10.265c-.001-.334.201-.573.425-.579z" font-family="sans-serif" font-weight="400" overflow="visible" style="line-height:normal;text-indent:0;text-align:start;text-decoration-line:none;text-decoration-style:solid;text-decoration-color:#000;text-transform:none;block-progression:tb;white-space:normal;isolation:auto;mix-blend-mode:normal;solid-color:#000;solid-opacity:1"/><path fill="#fde085" d="M14.273 1017.514c-.223.01-.426.245-.425.579l.002 10.238h14.215c-.008-.192-.064-.377-.194-.477l-6.687-5.13-6.688-5.131a.361.361 0 0 0-.223-.078zm16.516 0a1.79 1.79 0 0 0-1.783 1.784v9.033h5.146v-9.033a1.79 1.79 0 0 0-1.783-1.784h-1.58z" overflow="visible" style="isolation:auto;mix-blend-mode:normal;solid-color:#000;solid-opacity:1"/></g></svg>