<svg xmlns="http://www.w3.org/2000/svg" width="48" height="48"><g color="#000" transform="translate(0 -1004.362)"><circle style="isolation:auto;mix-blend-mode:normal;solid-color:#000;solid-opacity:1" cx="-20.532" cy="1028.437" r="24" fill="#386c9d" overflow="visible" transform="scale(-1 1) rotate(.193)"/><path fill="#5d93c6" style="isolation:auto;mix-blend-mode:normal;solid-color:#000;solid-opacity:1" d="M1.74 1029.324c1.3-12.495 14.38-23.088 23.527-23.289-13.255.045-23.571 10.034-23.527 23.289z" overflow="visible"/><path fill="#273b7a" style="line-height:normal;text-indent:0;text-align:start;text-decoration-line:none;text-decoration-style:solid;text-decoration-color:#000;text-transform:none;block-progression:tb;white-space:normal;isolation:auto;mix-blend-mode:normal;solid-color:#000;solid-opacity:1" d="M17.521 1020.097c-.981 0-1.787.807-1.787 1.789v12.955a1.778 1.778 0 0 0 .141.693 1.8 1.8 0 0 0 .385.57l15.078 15.079a24 24 0 0 0 15.494-15.467l-15.092-15.094a1.783 1.783 0 0 0-1.261-.525H17.52z" font-family="sans-serif" font-weight="400"/><path fill="#ffc91b" d="M17.521 1020.097H30.48c.981 0 1.787.807 1.787 1.789v12.955c0 .982-.806 1.789-1.787 1.789H17.52a1.795 1.795 0 0 1-1.787-1.79v-12.954c0-.982.806-1.79 1.787-1.79z" font-family="sans-serif" font-weight="400" overflow="visible" style="line-height:normal;text-indent:0;text-align:start;text-decoration-line:none;text-decoration-style:solid;text-decoration-color:#000;text-transform:none;block-progression:tb;white-space:normal;isolation:auto;mix-blend-mode:normal;solid-color:#000;solid-opacity:1"/><path fill="#fde085" d="M17.521 1020.097c-.981 0-1.787.807-1.787 1.789v6.476h16.532v-6.476c0-.982-.806-1.79-1.787-1.79H17.52z" font-family="sans-serif" font-weight="400" overflow="visible" style="line-height:normal;text-indent:0;text-align:start;text-decoration-line:none;text-decoration-style:solid;text-decoration-color:#000;text-transform:none;block-progression:tb;white-space:normal;isolation:auto;mix-blend-mode:normal;solid-color:#000;solid-opacity:1"/></g></svg>